# xmcd CD database file
#
# Track frame offsets:
#	150
#	47880
#	98657
#	133005
#	171934
#	220270
#
# Disc length: 3576 seconds
#
# Revision: 0
# Processed by: cddbd v1.5.1PL0 Copyright (c) Steve Scherf et al.
# Submitted via: CDex 1.51
#
DISCID=520df606
DTITLE=Martin Klute - Swing
DYEAR=1994
DGENRE=Jazz
TTITLE0=What a Friend
TTITLE1=Night and Day
TTITLE2=Peri's Scope
TTITLE3=Win Some
TTITLE4=Mercy, Mercy, Mercy
TTITLE5=Love for Sale
EXTD=YEAR: 1994
EXTT0=
EXTT1=
EXTT2=
EXTT3=
EXTT4=
EXTT5=
PLAYORDER=
